# xmcd
#
# Track frame offsets:
#	150
#	17377
#	36187
#	48672
#	61690
#	74612
#	90935
#	106682
#	126920
#	144160
#
# Disc length: 2098 seconds
#
# Revision: 4
# Processed by: cddbd v1.5.1PL0 Copyright (c) Steve Scherf et al.
# Submitted via: EasyCDDAExtractor 7.0.5.1
#
DISCID=7908300a
DTITLE=Lorrie Morgan - Watch Me
DYEAR=1992
DGENRE=Country
TTITLE0=Half Enough
TTITLE1=I Guess You Had To Be There
TTITLE2=What Part Of No
TTITLE3=You Leave Me Like This
TTITLE4=Someone To Call Me Darling
TTITLE5=Watch Me
TTITLE6=Behind His Last Goodbye
TTITLE7=It's A Heartache
TTITLE8=From Our House to Yours
TTITLE9=She's Takin' Him Back Again
EXTD=BNA Entertainment 66047-2\nBMG\n(c) 1992 YEAR: 1992 ID3G:   2
EXTT0=
EXTT1=
EXTT2=
EXTT3=
EXTT4=
EXTT5=
EXTT6=
EXTT7=
EXTT8=
EXTT9=
PLAYORDER=
